<mxfile host="app.diagrams.net" modified="2023-12-12T04:19:33.145Z" agent="Mozilla/5.0 (Windows NT 10.0; Win64; x64; rv:120.0) Gecko/20100101 Firefox/120.0" etag="xS0hRR0fw8kxLHWs7TC5" version="22.1.7" type="google">
  <diagram id="C5RBs43oDa-KdzZeNtuy" name="Page-1">
    <mxGraphModel grid="1" page="1" gridSize="10" guides="1" tooltips="1" connect="1" arrows="1" fold="1" pageScale="1" pageWidth="827" pageHeight="1169" math="0" shadow="0">
      <root>
        <mxCell id="WIyWlLk6GJQsqaUBKTNV-0" />
        <mxCell id="WIyWlLk6GJQsqaUBKTNV-1" parent="WIyWlLk6GJQsqaUBKTNV-0" />
        <mxCell id="VHOODgn6lSYM0ioNp2ZU-0" value="" style="edgeStyle=orthogonalEdgeStyle;rounded=0;orthogonalLoop=1;jettySize=auto;html=1;entryX=0.5;entryY=0;entryDx=0;entryDy=0;" edge="1" parent="WIyWlLk6GJQsqaUBKTNV-1" source="VHOODgn6lSYM0ioNp2ZU-1" target="VHOODgn6lSYM0ioNp2ZU-5">
          <mxGeometry relative="1" as="geometry" />
        </mxCell>
        <mxCell id="VHOODgn6lSYM0ioNp2ZU-1" value="Main" style="strokeWidth=2;html=1;shape=mxgraph.flowchart.terminator;whiteSpace=wrap;" vertex="1" parent="WIyWlLk6GJQsqaUBKTNV-1">
          <mxGeometry x="379" y="160" width="100" height="60" as="geometry" />
        </mxCell>
        <mxCell id="VHOODgn6lSYM0ioNp2ZU-2" value="" style="edgeStyle=orthogonalEdgeStyle;rounded=0;orthogonalLoop=1;jettySize=auto;html=1;" edge="1" parent="WIyWlLk6GJQsqaUBKTNV-1" source="VHOODgn6lSYM0ioNp2ZU-3" target="VHOODgn6lSYM0ioNp2ZU-1">
          <mxGeometry relative="1" as="geometry" />
        </mxCell>
        <mxCell id="VHOODgn6lSYM0ioNp2ZU-3" value="Setup" style="strokeWidth=2;html=1;shape=mxgraph.flowchart.terminator;whiteSpace=wrap;" vertex="1" parent="WIyWlLk6GJQsqaUBKTNV-1">
          <mxGeometry x="379" y="70" width="100" height="60" as="geometry" />
        </mxCell>
        <mxCell id="VHOODgn6lSYM0ioNp2ZU-4" value="" style="edgeStyle=orthogonalEdgeStyle;rounded=0;orthogonalLoop=1;jettySize=auto;html=1;" edge="1" parent="WIyWlLk6GJQsqaUBKTNV-1" source="VHOODgn6lSYM0ioNp2ZU-5" target="VHOODgn6lSYM0ioNp2ZU-7">
          <mxGeometry relative="1" as="geometry" />
        </mxCell>
        <mxCell id="VHOODgn6lSYM0ioNp2ZU-5" value="&lt;div&gt;Load PW2 &lt;br&gt;&lt;/div&gt;&lt;div&gt;Regisster&lt;br&gt;&lt;/div&gt;" style="rounded=1;whiteSpace=wrap;html=1;absoluteArcSize=1;arcSize=14;strokeWidth=2;" vertex="1" parent="WIyWlLk6GJQsqaUBKTNV-1">
          <mxGeometry x="379" y="250" width="100" height="50" as="geometry" />
        </mxCell>
        <mxCell id="VHOODgn6lSYM0ioNp2ZU-7" value="&lt;div&gt;Load PW1&lt;/div&gt;&lt;div&gt;Register&lt;br&gt;&lt;/div&gt;" style="rounded=1;whiteSpace=wrap;html=1;absoluteArcSize=1;arcSize=14;strokeWidth=2;" vertex="1" parent="WIyWlLk6GJQsqaUBKTNV-1">
          <mxGeometry x="379" y="330" width="100" height="50" as="geometry" />
        </mxCell>
        <mxCell id="VHOODgn6lSYM0ioNp2ZU-21" value="" style="endArrow=classic;html=1;rounded=0;exitX=0.5;exitY=1;exitDx=0;exitDy=0;" edge="1" parent="WIyWlLk6GJQsqaUBKTNV-1" source="VHOODgn6lSYM0ioNp2ZU-7" target="VHOODgn6lSYM0ioNp2ZU-1">
          <mxGeometry width="50" height="50" relative="1" as="geometry">
            <mxPoint x="429" y="460" as="sourcePoint" />
            <mxPoint x="349" y="530" as="targetPoint" />
            <Array as="points">
              <mxPoint x="430" y="400" />
              <mxPoint x="349" y="400" />
              <mxPoint x="349" y="190" />
            </Array>
          </mxGeometry>
        </mxCell>
        <mxCell id="VHOODgn6lSYM0ioNp2ZU-24" value="" style="edgeStyle=orthogonalEdgeStyle;rounded=0;orthogonalLoop=1;jettySize=auto;html=1;" edge="1" parent="WIyWlLk6GJQsqaUBKTNV-1" source="VHOODgn6lSYM0ioNp2ZU-25" target="VHOODgn6lSYM0ioNp2ZU-26">
          <mxGeometry relative="1" as="geometry" />
        </mxCell>
        <mxCell id="VHOODgn6lSYM0ioNp2ZU-25" value="Interupt" style="strokeWidth=2;html=1;shape=mxgraph.flowchart.terminator;whiteSpace=wrap;" vertex="1" parent="WIyWlLk6GJQsqaUBKTNV-1">
          <mxGeometry x="24" y="510" width="100" height="60" as="geometry" />
        </mxCell>
        <mxCell id="VHOODgn6lSYM0ioNp2ZU-26" value="&lt;div&gt;Test I2C&lt;/div&gt;&lt;div&gt;Flag&lt;br&gt;&lt;/div&gt;" style="strokeWidth=2;html=1;shape=mxgraph.flowchart.decision;whiteSpace=wrap;" vertex="1" parent="WIyWlLk6GJQsqaUBKTNV-1">
          <mxGeometry x="24" y="600" width="100" height="100" as="geometry" />
        </mxCell>
        <mxCell id="VHOODgn6lSYM0ioNp2ZU-27" value="Start ClockStretch" style="rounded=1;whiteSpace=wrap;html=1;absoluteArcSize=1;arcSize=14;strokeWidth=2;" vertex="1" parent="WIyWlLk6GJQsqaUBKTNV-1">
          <mxGeometry x="154" y="625" width="100" height="50" as="geometry" />
        </mxCell>
        <mxCell id="VHOODgn6lSYM0ioNp2ZU-28" value="Data" style="strokeWidth=2;html=1;shape=mxgraph.flowchart.decision;whiteSpace=wrap;" vertex="1" parent="WIyWlLk6GJQsqaUBKTNV-1">
          <mxGeometry x="284" y="600" width="100" height="100" as="geometry" />
        </mxCell>
        <mxCell id="VHOODgn6lSYM0ioNp2ZU-29" value="&lt;div&gt;Xaxis&lt;br&gt;&lt;/div&gt;&lt;div&gt;Indicator&lt;br&gt;&lt;/div&gt;" style="strokeWidth=2;html=1;shape=mxgraph.flowchart.decision;whiteSpace=wrap;" vertex="1" parent="WIyWlLk6GJQsqaUBKTNV-1">
          <mxGeometry x="414" y="600" width="100" height="100" as="geometry" />
        </mxCell>
        <mxCell id="VHOODgn6lSYM0ioNp2ZU-30" value="&lt;div&gt;Yaxis&lt;br&gt;&lt;/div&gt;&lt;div&gt;Indicator&lt;br&gt;&lt;/div&gt;" style="strokeWidth=2;html=1;shape=mxgraph.flowchart.decision;whiteSpace=wrap;" vertex="1" parent="WIyWlLk6GJQsqaUBKTNV-1">
          <mxGeometry x="544" y="600" width="100" height="100" as="geometry" />
        </mxCell>
        <mxCell id="VHOODgn6lSYM0ioNp2ZU-33" value="" style="endArrow=classic;html=1;rounded=0;exitX=1;exitY=0.5;exitDx=0;exitDy=0;exitPerimeter=0;entryX=0;entryY=0.5;entryDx=0;entryDy=0;entryPerimeter=0;" edge="1" parent="WIyWlLk6GJQsqaUBKTNV-1" source="VHOODgn6lSYM0ioNp2ZU-28" target="VHOODgn6lSYM0ioNp2ZU-29">
          <mxGeometry width="50" height="50" relative="1" as="geometry">
            <mxPoint x="484" y="780" as="sourcePoint" />
            <mxPoint x="534" y="730" as="targetPoint" />
          </mxGeometry>
        </mxCell>
        <mxCell id="VHOODgn6lSYM0ioNp2ZU-34" value="" style="endArrow=classic;html=1;rounded=0;entryX=0;entryY=0.5;entryDx=0;entryDy=0;entryPerimeter=0;" edge="1" parent="WIyWlLk6GJQsqaUBKTNV-1" target="VHOODgn6lSYM0ioNp2ZU-30">
          <mxGeometry width="50" height="50" relative="1" as="geometry">
            <mxPoint x="514" y="650" as="sourcePoint" />
            <mxPoint x="424" y="660" as="targetPoint" />
          </mxGeometry>
        </mxCell>
        <mxCell id="VHOODgn6lSYM0ioNp2ZU-37" value="Yes" style="text;html=1;align=center;verticalAlign=middle;resizable=0;points=[];autosize=1;strokeColor=none;fillColor=none;" vertex="1" parent="WIyWlLk6GJQsqaUBKTNV-1">
          <mxGeometry x="374" y="618" width="40" height="30" as="geometry" />
        </mxCell>
        <mxCell id="VHOODgn6lSYM0ioNp2ZU-38" value="No" style="text;html=1;align=center;verticalAlign=middle;resizable=0;points=[];autosize=1;strokeColor=none;fillColor=none;" vertex="1" parent="WIyWlLk6GJQsqaUBKTNV-1">
          <mxGeometry x="504" y="618" width="40" height="30" as="geometry" />
        </mxCell>
        <mxCell id="VHOODgn6lSYM0ioNp2ZU-41" value="" style="endArrow=classic;html=1;rounded=0;exitX=1;exitY=0.5;exitDx=0;exitDy=0;exitPerimeter=0;entryX=0;entryY=0.5;entryDx=0;entryDy=0;" edge="1" parent="WIyWlLk6GJQsqaUBKTNV-1" source="VHOODgn6lSYM0ioNp2ZU-26" target="VHOODgn6lSYM0ioNp2ZU-27">
          <mxGeometry width="50" height="50" relative="1" as="geometry">
            <mxPoint x="194" y="710" as="sourcePoint" />
            <mxPoint x="244" y="660" as="targetPoint" />
          </mxGeometry>
        </mxCell>
        <mxCell id="VHOODgn6lSYM0ioNp2ZU-42" value="Yes" style="text;html=1;align=center;verticalAlign=middle;resizable=0;points=[];autosize=1;strokeColor=none;fillColor=none;" vertex="1" parent="WIyWlLk6GJQsqaUBKTNV-1">
          <mxGeometry x="114" y="618" width="40" height="30" as="geometry" />
        </mxCell>
        <mxCell id="VHOODgn6lSYM0ioNp2ZU-43" value="" style="endArrow=classic;html=1;rounded=0;entryX=0;entryY=0.5;entryDx=0;entryDy=0;entryPerimeter=0;exitX=1;exitY=0.5;exitDx=0;exitDy=0;" edge="1" parent="WIyWlLk6GJQsqaUBKTNV-1" source="VHOODgn6lSYM0ioNp2ZU-27" target="VHOODgn6lSYM0ioNp2ZU-28">
          <mxGeometry width="50" height="50" relative="1" as="geometry">
            <mxPoint x="194" y="710" as="sourcePoint" />
            <mxPoint x="244" y="660" as="targetPoint" />
          </mxGeometry>
        </mxCell>
        <mxCell id="VHOODgn6lSYM0ioNp2ZU-44" value="" style="endArrow=classic;html=1;rounded=0;exitX=1;exitY=0.5;exitDx=0;exitDy=0;exitPerimeter=0;entryX=0;entryY=0.5;entryDx=0;entryDy=0;" edge="1" parent="WIyWlLk6GJQsqaUBKTNV-1" target="VHOODgn6lSYM0ioNp2ZU-46">
          <mxGeometry width="50" height="50" relative="1" as="geometry">
            <mxPoint x="644" y="650" as="sourcePoint" />
            <mxPoint x="634" y="750" as="targetPoint" />
          </mxGeometry>
        </mxCell>
        <mxCell id="VHOODgn6lSYM0ioNp2ZU-45" value="Save Xaxis Data" style="rounded=1;whiteSpace=wrap;html=1;absoluteArcSize=1;arcSize=14;strokeWidth=2;" vertex="1" parent="WIyWlLk6GJQsqaUBKTNV-1">
          <mxGeometry x="414" y="720" width="100" height="50" as="geometry" />
        </mxCell>
        <mxCell id="VHOODgn6lSYM0ioNp2ZU-46" value="&lt;div&gt;Test and Set &lt;br&gt;&lt;/div&gt;&lt;div&gt;Data Indicators &lt;br&gt;&lt;/div&gt;" style="rounded=1;whiteSpace=wrap;html=1;absoluteArcSize=1;arcSize=14;strokeWidth=2;" vertex="1" parent="WIyWlLk6GJQsqaUBKTNV-1">
          <mxGeometry x="674" y="625" width="100" height="50" as="geometry" />
        </mxCell>
        <mxCell id="VHOODgn6lSYM0ioNp2ZU-47" value="Save Yaxis Data" style="rounded=1;whiteSpace=wrap;html=1;absoluteArcSize=1;arcSize=14;strokeWidth=2;" vertex="1" parent="WIyWlLk6GJQsqaUBKTNV-1">
          <mxGeometry x="544" y="720" width="100" height="50" as="geometry" />
        </mxCell>
        <mxCell id="VHOODgn6lSYM0ioNp2ZU-50" value="" style="endArrow=classic;html=1;rounded=0;exitX=0.5;exitY=1;exitDx=0;exitDy=0;exitPerimeter=0;entryX=0.5;entryY=0;entryDx=0;entryDy=0;" edge="1" parent="WIyWlLk6GJQsqaUBKTNV-1" source="VHOODgn6lSYM0ioNp2ZU-29" target="VHOODgn6lSYM0ioNp2ZU-45">
          <mxGeometry width="50" height="50" relative="1" as="geometry">
            <mxPoint x="534" y="700" as="sourcePoint" />
            <mxPoint x="584" y="650" as="targetPoint" />
          </mxGeometry>
        </mxCell>
        <mxCell id="VHOODgn6lSYM0ioNp2ZU-51" value="" style="endArrow=classic;html=1;rounded=0;exitX=0.5;exitY=1;exitDx=0;exitDy=0;exitPerimeter=0;entryX=0.5;entryY=0;entryDx=0;entryDy=0;" edge="1" parent="WIyWlLk6GJQsqaUBKTNV-1" source="VHOODgn6lSYM0ioNp2ZU-30" target="VHOODgn6lSYM0ioNp2ZU-47">
          <mxGeometry width="50" height="50" relative="1" as="geometry">
            <mxPoint x="474" y="710" as="sourcePoint" />
            <mxPoint x="474" y="730" as="targetPoint" />
          </mxGeometry>
        </mxCell>
        <mxCell id="VHOODgn6lSYM0ioNp2ZU-54" value="Yes" style="text;html=1;align=center;verticalAlign=middle;resizable=0;points=[];autosize=1;strokeColor=none;fillColor=none;" vertex="1" parent="WIyWlLk6GJQsqaUBKTNV-1">
          <mxGeometry x="464" y="690" width="40" height="30" as="geometry" />
        </mxCell>
        <mxCell id="VHOODgn6lSYM0ioNp2ZU-55" value="Yes" style="text;html=1;align=center;verticalAlign=middle;resizable=0;points=[];autosize=1;strokeColor=none;fillColor=none;" vertex="1" parent="WIyWlLk6GJQsqaUBKTNV-1">
          <mxGeometry x="604" y="690" width="40" height="30" as="geometry" />
        </mxCell>
        <mxCell id="VHOODgn6lSYM0ioNp2ZU-58" value="No" style="text;html=1;align=center;verticalAlign=middle;resizable=0;points=[];autosize=1;strokeColor=none;fillColor=none;" vertex="1" parent="WIyWlLk6GJQsqaUBKTNV-1">
          <mxGeometry x="634" y="618" width="40" height="30" as="geometry" />
        </mxCell>
        <mxCell id="VHOODgn6lSYM0ioNp2ZU-59" value="" style="endArrow=classic;html=1;rounded=0;exitX=1;exitY=0.5;exitDx=0;exitDy=0;" edge="1" parent="WIyWlLk6GJQsqaUBKTNV-1" source="VHOODgn6lSYM0ioNp2ZU-46">
          <mxGeometry width="50" height="50" relative="1" as="geometry">
            <mxPoint x="354" y="770" as="sourcePoint" />
            <mxPoint x="594" y="820" as="targetPoint" />
            <Array as="points">
              <mxPoint x="804" y="650" />
              <mxPoint x="804" y="820" />
            </Array>
          </mxGeometry>
        </mxCell>
        <mxCell id="VHOODgn6lSYM0ioNp2ZU-62" value="" style="endArrow=classic;html=1;rounded=0;exitX=0.5;exitY=1;exitDx=0;exitDy=0;" edge="1" parent="WIyWlLk6GJQsqaUBKTNV-1" source="VHOODgn6lSYM0ioNp2ZU-47">
          <mxGeometry width="50" height="50" relative="1" as="geometry">
            <mxPoint x="874" y="790" as="sourcePoint" />
            <mxPoint x="464" y="820" as="targetPoint" />
            <Array as="points">
              <mxPoint x="594" y="820" />
            </Array>
          </mxGeometry>
        </mxCell>
        <mxCell id="VHOODgn6lSYM0ioNp2ZU-63" value="" style="endArrow=classic;html=1;rounded=0;exitX=0.5;exitY=1;exitDx=0;exitDy=0;" edge="1" parent="WIyWlLk6GJQsqaUBKTNV-1" source="VHOODgn6lSYM0ioNp2ZU-45">
          <mxGeometry width="50" height="50" relative="1" as="geometry">
            <mxPoint x="884" y="800" as="sourcePoint" />
            <mxPoint x="74" y="890" as="targetPoint" />
            <Array as="points">
              <mxPoint x="464" y="820" />
              <mxPoint x="74" y="820" />
            </Array>
          </mxGeometry>
        </mxCell>
        <mxCell id="VHOODgn6lSYM0ioNp2ZU-64" value="" style="edgeStyle=orthogonalEdgeStyle;rounded=0;orthogonalLoop=1;jettySize=auto;html=1;" edge="1" parent="WIyWlLk6GJQsqaUBKTNV-1" source="VHOODgn6lSYM0ioNp2ZU-65">
          <mxGeometry relative="1" as="geometry">
            <mxPoint x="74" y="980" as="targetPoint" />
          </mxGeometry>
        </mxCell>
        <mxCell id="VHOODgn6lSYM0ioNp2ZU-65" value="End Clock Stretch" style="rounded=1;whiteSpace=wrap;html=1;absoluteArcSize=1;arcSize=14;strokeWidth=2;" vertex="1" parent="WIyWlLk6GJQsqaUBKTNV-1">
          <mxGeometry x="24" y="900" width="100" height="50" as="geometry" />
        </mxCell>
        <mxCell id="VHOODgn6lSYM0ioNp2ZU-66" value="Reload Data" style="rounded=1;whiteSpace=wrap;html=1;absoluteArcSize=1;arcSize=14;strokeWidth=2;" vertex="1" parent="WIyWlLk6GJQsqaUBKTNV-1">
          <mxGeometry x="24" y="984.5" width="100" height="50" as="geometry" />
        </mxCell>
        <mxCell id="VHOODgn6lSYM0ioNp2ZU-67" value="&lt;div&gt;Return and Enable &lt;br&gt;&lt;/div&gt;&lt;div&gt;interrupts&lt;br&gt;&lt;/div&gt;" style="rounded=1;whiteSpace=wrap;html=1;absoluteArcSize=1;arcSize=14;strokeWidth=2;" vertex="1" parent="WIyWlLk6GJQsqaUBKTNV-1">
          <mxGeometry x="24" y="1060" width="100" height="50" as="geometry" />
        </mxCell>
        <mxCell id="VHOODgn6lSYM0ioNp2ZU-68" value="" style="endArrow=classic;html=1;rounded=0;exitX=0.5;exitY=1;exitDx=0;exitDy=0;" edge="1" parent="WIyWlLk6GJQsqaUBKTNV-1" source="VHOODgn6lSYM0ioNp2ZU-66" target="VHOODgn6lSYM0ioNp2ZU-67">
          <mxGeometry width="50" height="50" relative="1" as="geometry">
            <mxPoint x="114" y="1010" as="sourcePoint" />
            <mxPoint x="164" y="960" as="targetPoint" />
          </mxGeometry>
        </mxCell>
        <mxCell id="VHOODgn6lSYM0ioNp2ZU-69" value="" style="endArrow=classic;html=1;rounded=0;exitX=0.5;exitY=1;exitDx=0;exitDy=0;exitPerimeter=0;" edge="1" parent="WIyWlLk6GJQsqaUBKTNV-1" source="VHOODgn6lSYM0ioNp2ZU-26">
          <mxGeometry width="50" height="50" relative="1" as="geometry">
            <mxPoint x="94" y="960" as="sourcePoint" />
            <mxPoint x="74" y="820" as="targetPoint" />
          </mxGeometry>
        </mxCell>
      </root>
    </mxGraphModel>
  </diagram>
</mxfile>
